<?xml version="1.0" encoding="UTF-8" standalone="no"?>
<!-- Created with Inkscape (http://www.inkscape.org/) -->

<svg
   xmlns:dc="http://purl.org/dc/elements/1.1/"
   xmlns:cc="http://creativecommons.org/ns#"
   xmlns:rdf="http://www.w3.org/1999/02/22-rdf-syntax-ns#"
   xmlns:svg="http://www.w3.org/2000/svg"
   xmlns="http://www.w3.org/2000/svg"
   xmlns:sodipodi="http://sodipodi.sourceforge.net/DTD/sodipodi-0.dtd"
   xmlns:inkscape="http://www.inkscape.org/namespaces/inkscape"
   version="1.1"
   id="svg2"
   xml:space="preserve"
   width="128"
   height="128.00002"
   viewBox="0 0 127.99999 128.00001"
   sodipodi:docname="logo.svg"
   inkscape:version="0.92.4 (5da689c313, 2019-01-14)"><metadata
     id="metadata8"><rdf:RDF><cc:Work
         rdf:about=""><dc:format>image/svg+xml</dc:format><dc:type
           rdf:resource="http://purl.org/dc/dcmitype/StillImage" /><dc:title /></cc:Work></rdf:RDF></metadata><defs
     id="defs6"><clipPath
       clipPathUnits="userSpaceOnUse"
       id="clipPath24"><path
         d="M 0,800 H 800 V 0 H 0 Z"
         id="path22"
         inkscape:connector-curvature="0" /></clipPath><clipPath
       clipPathUnits="userSpaceOnUse"
       id="clipPath38"><path
         d="M 0,800 H 800 V 0 H 0 Z"
         id="path36"
         inkscape:connector-curvature="0" /></clipPath><clipPath
       clipPathUnits="userSpaceOnUse"
       id="clipPath170"><path
         d="M 0,800 H 800 V 0 H 0 Z"
         id="path168"
         inkscape:connector-curvature="0" /></clipPath><clipPath
       clipPathUnits="userSpaceOnUse"
       id="clipPath1026"><path
         d="m 578.277,369.423 h 43.49 v -34.574 h -43.49 z"
         id="path1024"
         inkscape:connector-curvature="0" /></clipPath><clipPath
       clipPathUnits="userSpaceOnUse"
       id="clipPath1042"><path
         d="m 740.029,209.215 h 43.49 v -34.574 h -43.49 z"
         id="path1040"
         inkscape:connector-curvature="0" /></clipPath><clipPath
       clipPathUnits="userSpaceOnUse"
       id="clipPath1058"><path
         d="m 416.732,209.215 h 43.49 v -34.574 h -43.49 z"
         id="path1056"
         inkscape:connector-curvature="0" /></clipPath><clipPath
       clipPathUnits="userSpaceOnUse"
       id="clipPath1074"><path
         d="m 453.222,318.812 h 43.489 v -34.574 h -43.489 z"
         id="path1072"
         inkscape:connector-curvature="0" /></clipPath><clipPath
       clipPathUnits="userSpaceOnUse"
       id="clipPath1090"><path
         d="m 698.049,318.812 h 43.489 v -34.574 h -43.489 z"
         id="path1088"
         inkscape:connector-curvature="0" /></clipPath><clipPath
       clipPathUnits="userSpaceOnUse"
       id="clipPath1106"><path
         d="m 453.222,116.954 h 43.489 V 82.3799 h -43.489 z"
         id="path1104"
         inkscape:connector-curvature="0" /></clipPath><clipPath
       clipPathUnits="userSpaceOnUse"
       id="clipPath1122"><path
         d="m 698.049,116.954 h 43.489 V 82.3799 h -43.489 z"
         id="path1120"
         inkscape:connector-curvature="0" /></clipPath><clipPath
       clipPathUnits="userSpaceOnUse"
       id="clipPath1138"><path
         d="m 578.277,64.2314 h 43.49 V 29.6572 h -43.49 z"
         id="path1136"
         inkscape:connector-curvature="0" /></clipPath><clipPath
       clipPathUnits="userSpaceOnUse"
       id="clipPath1196"><path
         d="m 103.208,108.139 c 0,-5.282 4.298,-9.576 9.576,-9.576 v 0 c 5.282,0 9.579,4.294 9.579,9.576 v 0 c 0,5.283 -4.297,9.577 -9.579,9.577 v 0 c -5.278,0 -9.576,-4.294 -9.576,-9.577 m 3.614,0 c 0,3.289 2.674,5.965 5.962,5.965 v 0 c 3.289,0 5.965,-2.676 5.965,-5.965 v 0 c 0,-3.287 -2.676,-5.961 -5.965,-5.961 v 0 c -3.288,0 -5.962,2.674 -5.962,5.961"
         id="path1194"
         inkscape:connector-curvature="0" /></clipPath><clipPath
       clipPathUnits="userSpaceOnUse"
       id="clipPath1220"><path
         d="M 0,800 H 800 V 0 H 0 Z"
         id="path1218"
         inkscape:connector-curvature="0" /></clipPath><clipPath
       clipPathUnits="userSpaceOnUse"
       id="clipPath1232"><path
         d="m 55.174,108.139 c 0,-5.282 4.299,-9.576 9.579,-9.576 v 0 c 5.281,0 9.577,4.294 9.577,9.576 v 0 c 0,5.283 -4.296,9.577 -9.577,9.577 v 0 c -5.28,0 -9.579,-4.294 -9.579,-9.577 m 3.616,0 c 0,3.289 2.675,5.965 5.963,5.965 v 0 c 3.288,0 5.964,-2.676 5.964,-5.965 v 0 c 0,-3.287 -2.676,-5.961 -5.964,-5.961 v 0 c -3.288,0 -5.963,2.674 -5.963,5.961"
         id="path1230"
         inkscape:connector-curvature="0" /></clipPath><clipPath
       clipPathUnits="userSpaceOnUse"
       id="clipPath1256"><path
         d="M 0,800 H 800 V 0 H 0 Z"
         id="path1254"
         inkscape:connector-curvature="0" /></clipPath><clipPath
       clipPathUnits="userSpaceOnUse"
       id="clipPath1390"><path
         d="m 277.999,297.142 7.893,-10.337 -12.881,-25.432 h 35.215 c 0,0 31.233,-0.887 44.287,-0.734 v 0 c 19.854,0 19.358,12.636 14.811,15.418 v 0 c -8.077,4.316 -15.139,10.748 -30.324,10.748 v 0 h -27.801 l -17.375,10.337 z"
         id="path1388"
         inkscape:connector-curvature="0" /></clipPath><clipPath
       clipPathUnits="userSpaceOnUse"
       id="clipPath1402"><path
         d="M 0,800 H 800 V 0 H 0 Z"
         id="path1400"
         inkscape:connector-curvature="0" /></clipPath></defs><sodipodi:namedview
     pagecolor="#ffffff"
     bordercolor="#666666"
     borderopacity="1"
     objecttolerance="10"
     gridtolerance="10"
     guidetolerance="10"
     inkscape:pageopacity="0"
     inkscape:pageshadow="2"
     inkscape:window-width="1920"
     inkscape:window-height="1046"
     id="namedview4"
     showgrid="false"
     inkscape:zoom="3.5399998"
     inkscape:cx="19.425075"
     inkscape:cy="40.101363"
     inkscape:window-x="-11"
     inkscape:window-y="-11"
     inkscape:window-maximized="1"
     inkscape:current-layer="g166"
     fit-margin-top="0"
     fit-margin-left="0"
     fit-margin-right="0"
     fit-margin-bottom="0" /><g
     id="g10"
     inkscape:groupmode="layer"
     inkscape:label="770752_770752"
     transform="matrix(1.3333333,0,0,-1.3333333,-512.65493,733.20269)"><g
       id="g164"><g
         id="g166"
         clip-path="url(#clipPath170)"><g
           id="g180"
           transform="matrix(0.8359748,0,0,0.95655823,480.49121,455.81514)"><path
             d="m 0,0 c 0,-1.1 -0.9,-2 -2,-2 h -110.836 c -1.1,0 -2,0.9 -2,2 v 82.324 c 0,1.1 0.9,2 2,2 H -2 c 1.1,0 2,-0.9 2,-2 z"
             style="fill:#f4d684;fill-opacity:1;fill-rule:nonzero;stroke:none"
             id="path182"
             inkscape:connector-curvature="0" /></g><g
           id="g184"
           transform="matrix(0.8359748,0,0,0.95655823,479.70251,536.31508)"><path
             d="m 0,0 h -112.949 l 12.242,14.204 H -9.51 Z"
             style="fill:#ceac59;fill-opacity:1;fill-rule:nonzero;stroke:none"
             id="path186"
             inkscape:connector-curvature="0" /></g><path
           d="m 464.61458,499.95876 h -74.20033 v 30.01978 h 74.20033 z"
           style="fill:#ffffff;fill-opacity:1;fill-rule:nonzero;stroke:none;stroke-width:1.57832754"
           id="path188"
           inkscape:connector-curvature="0" /><path
           d="M 395.58169,506.75347 H 394.379 v 19.63596 h 1.20269 z"
           style="fill:#231f20;fill-opacity:1;fill-rule:nonzero;stroke:none;stroke-width:1.57832754"
           id="path190"
           inkscape:connector-curvature="0" /><path
           d="m 398.55684,506.75347 h -1.20268 v 19.63596 h 1.20268 z"
           style="fill:#231f20;fill-opacity:1;fill-rule:nonzero;stroke:none;stroke-width:1.57832754"
           id="path192"
           inkscape:connector-curvature="0" /><path
           d="m 401.48464,506.75347 h -1.20269 v 19.63596 h 1.20269 z"
           style="fill:#231f20;fill-opacity:1;fill-rule:nonzero;stroke:none;stroke-width:1.57832754"
           id="path194"
           inkscape:connector-curvature="0" /><path
           d="m 404.41716,504.06556 h -1.20583 v 22.32545 h 1.20583 z"
           style="fill:#231f20;fill-opacity:1;fill-rule:nonzero;stroke:none;stroke-width:1.57832754"
           id="path196"
           inkscape:connector-curvature="0" /><path
           d="m 407.34812,506.75347 h -1.20585 v 19.63596 h 1.20585 z"
           style="fill:#231f20;fill-opacity:1;fill-rule:nonzero;stroke:none;stroke-width:1.57832754"
           id="path198"
           inkscape:connector-curvature="0" /><path
           d="m 410.27591,506.75347 h -1.20268 v 19.63596 h 1.20268 z"
           style="fill:#231f20;fill-opacity:1;fill-rule:nonzero;stroke:none;stroke-width:1.57832754"
           id="path200"
           inkscape:connector-curvature="0" /><path
           d="m 413.2053,504.06556 h -1.20269 v 22.32545 h 1.20269 z"
           style="fill:#231f20;fill-opacity:1;fill-rule:nonzero;stroke:none;stroke-width:1.57832754"
           id="path202"
           inkscape:connector-curvature="0" /><path
           d="m 416.1331,506.75347 h -1.20585 v 19.63596 h 1.20585 z"
           style="fill:#231f20;fill-opacity:1;fill-rule:nonzero;stroke:none;stroke-width:1.57832754"
           id="path204"
           inkscape:connector-curvature="0" /><path
           d="m 419.06247,506.75347 h -1.20267 v 19.63596 h 1.20267 z"
           style="fill:#231f20;fill-opacity:1;fill-rule:nonzero;stroke:none;stroke-width:1.57832754"
           id="path206"
           inkscape:connector-curvature="0" /><path
           d="m 421.99343,506.75347 h -1.20584 v 19.63596 h 1.20584 z"
           style="fill:#231f20;fill-opacity:1;fill-rule:nonzero;stroke:none;stroke-width:1.57832754"
           id="path208"
           inkscape:connector-curvature="0" /><path
           d="m 424.92595,506.75347 h -1.20585 v 19.63596 h 1.20585 z"
           style="fill:#231f20;fill-opacity:1;fill-rule:nonzero;stroke:none;stroke-width:1.57832754"
           id="path210"
           inkscape:connector-curvature="0" /><path
           d="m 427.85375,504.06556 h -1.20584 v 22.32545 h 1.20584 z"
           style="fill:#231f20;fill-opacity:1;fill-rule:nonzero;stroke:none;stroke-width:1.57832754"
           id="path212"
           inkscape:connector-curvature="0" /><path
           d="m 430.78313,506.75347 h -1.20584 v 19.63596 h 1.20584 z"
           style="fill:#231f20;fill-opacity:1;fill-rule:nonzero;stroke:none;stroke-width:1.57832754"
           id="path214"
           inkscape:connector-curvature="0" /><path
           d="m 433.71093,506.75347 h -1.20269 v 19.63596 h 1.20269 z"
           style="fill:#231f20;fill-opacity:1;fill-rule:nonzero;stroke:none;stroke-width:1.57832754"
           id="path216"
           inkscape:connector-curvature="0" /><path
           d="m 436.64029,506.75347 h -1.20267 v 19.63596 h 1.20267 z"
           style="fill:#231f20;fill-opacity:1;fill-rule:nonzero;stroke:none;stroke-width:1.57832754"
           id="path218"
           inkscape:connector-curvature="0" /><path
           d="m 439.56494,506.75347 h -1.20269 v 19.63596 h 1.20269 z"
           style="fill:#231f20;fill-opacity:1;fill-rule:nonzero;stroke:none;stroke-width:1.57832754"
           id="path220"
           inkscape:connector-curvature="0" /><path
           d="m 442.49747,504.06556 h -1.19952 v 22.32545 h 1.19952 z"
           style="fill:#231f20;fill-opacity:1;fill-rule:nonzero;stroke:none;stroke-width:1.57832754"
           id="path222"
           inkscape:connector-curvature="0" /><path
           d="m 445.42527,506.75347 h -1.20583 v 19.63596 h 1.20583 z"
           style="fill:#231f20;fill-opacity:1;fill-rule:nonzero;stroke:none;stroke-width:1.57832754"
           id="path224"
           inkscape:connector-curvature="0" /><path
           d="m 448.35623,506.75347 h -1.20584 v 19.63596 h 1.20584 z"
           style="fill:#231f20;fill-opacity:1;fill-rule:nonzero;stroke:none;stroke-width:1.57832754"
           id="path226"
           inkscape:connector-curvature="0" /><path
           d="m 451.28561,506.75347 h -1.20268 v 19.63596 h 1.20268 z"
           style="fill:#231f20;fill-opacity:1;fill-rule:nonzero;stroke:none;stroke-width:1.57832754"
           id="path228"
           inkscape:connector-curvature="0" /><path
           d="m 454.21657,506.75347 h -1.20901 v 19.63596 h 1.20901 z"
           style="fill:#231f20;fill-opacity:1;fill-rule:nonzero;stroke:none;stroke-width:1.57832754"
           id="path230"
           inkscape:connector-curvature="0" /><path
           d="m 457.14593,506.75347 h -1.20584 v 19.63596 h 1.20584 z"
           style="fill:#231f20;fill-opacity:1;fill-rule:nonzero;stroke:none;stroke-width:1.57832754"
           id="path232"
           inkscape:connector-curvature="0" /><path
           d="m 460.07373,506.75347 h -1.20585 v 19.63596 h 1.20585 z"
           style="fill:#231f20;fill-opacity:1;fill-rule:nonzero;stroke:none;stroke-width:1.57832754"
           id="path234"
           inkscape:connector-curvature="0" /><g
           id="g1470"
           transform="matrix(1.3788179,0,0,1.3788179,-423.77014,-304.61477)"><g
             style="fill:#4d4d4d"
             transform="matrix(1.973396,0,0,1.973396,648.06941,550.12108)"
             id="g776"><path
               inkscape:connector-curvature="0"
               id="path778"
               style="fill:#4d4d4d;fill-opacity:1;fill-rule:nonzero;stroke:none"
               d="M 0,0 V 8.93 H 1.554 L -0.854,12.926 -3.262,8.93 h 1.555 V 0 Z" /></g><g
             style="fill:#4d4d4d"
             transform="matrix(1.973396,0,0,1.973396,634.4889,550.12108)"
             id="g780"><path
               inkscape:connector-curvature="0"
               id="path782"
               style="fill:#4d4d4d;fill-opacity:1;fill-rule:nonzero;stroke:none"
               d="M 0,0 V 8.93 H 1.555 L -0.854,12.926 -3.261,8.93 h 1.554 V 0 Z" /></g></g></g></g></g></svg>